PathFileType	4	(X/Y/Z)	..\data\2014001\dynamic\2014001_C5_01.trc
DataRate	CameraRate	NumFrames	NumMarkers	Units	OrigDataRate	OrigDataStartFrame	OrigNumFrames
100.000000	100.000000	4	52	mm	100.000000	78	125
Frame#	Time	L_IAS			L_IPS			R_IPS			R_IAS			L_FTC			L_FLE			L_FME			L_FAX			L_TTC			L_FAL			L_TAM			L_FCC			L_FM1			L_FM2			L_FM5			R_FTC			R_FLE			R_FME			R_FAX			R_TTC			R_FAL			R_TAM			R_FCC			R_FM1			R_FM2			R_FM5			CV7			TV10			SXS			SJN			L_SIA			L_SRS			L_SAA			L_SAE			L_HLE			L_HME			L_UOA			L_RSP			L_UHE			L_HM2			L_HM5			R_SIA			R_SRS			R_SAA			R_SAE			R_HLE			R_HME			R_UOA			R_RSP			R_UHE			R_HM2			R_HM5			
		X1	Y1	Z1	X2	Y2	Z2	X3	Y3	Z3	X4	Y4	Z4	X5	Y5	Z5	X6	Y6	Z6	X7	Y7	Z7	X8	Y8	Z8	X9	Y9	Z9	X10	Y10	Z10	X11	Y11	Z11	X12	Y12	Z12	X13	Y13	Z13	X14	Y14	Z14	X15	Y15	Z15	X16	Y16	Z16	X17	Y17	Z17	X18	Y18	Z18	X19	Y19	Z19	X20	Y20	Z20	X21	Y21	Z21	X22	Y22	Z22	X23	Y23	Z23	X24	Y24	Z24	X25	Y25	Z25	X26	Y26	Z26	X27	Y27	Z27	X28	Y28	Z28	X29	Y29	Z29	X30	Y30	Z30	X31	Y31	Z31	X32	Y32	Z32	X33	Y33	Z33	X34	Y34	Z34	X35	Y35	Z35	X36	Y36	Z36	X37	Y37	Z37	X38	Y38	Z38	X39	Y39	Z39	X40	Y40	Z40	X41	Y41	Z41	X42	Y42	Z42	X43	Y43	Z43	X44	Y44	Z44	X45	Y45	Z45	X46	Y46	Z46	X47	Y47	Z47	X48	Y48	Z48	X49	Y49	Z49	X50	Y50	Z50	X51	Y51	Z51	X52	Y52	Z52	

79	0.78	1301.386352539063	834.9404296875002	-319.1567382812501	1120.783935546875	876.669128417969	-271.9290466308594	1109.072143554688	883.9417114257815	-187.8345794677735	1269.802734375	840.796569824219	-83.44750976562501	1236.889404296875	747.3284912109376	-391.5782470703126	1403.535278320313	439.3511352539064	-360.3605957031251	1435.007568359375	446.3175048828126	-246.3902893066407	1414.51416015625	378.4891357421876	-361.3616638183594	1485.309936523438	392.851776123047	-323.1984558105469	1565.388305664063	86.68533325195314	-324.8510131835938	1588.896240234375	116.0037307739258	-242.2761535644532	1558.846313476563	29.46330261230469	-273.2304992675782	1705.630859375	140.5926055908203	-278.4275207519532	1693.945434570313	143.1141052246094	-336.0280151367188	1665.66845703125	98.52223968505862	-367.0028686523438	1145.898559570313	769.792419433594	-40.21238708496094	1020.939636230469	448.3900146484376	-80.20008087158205	1040.243408203125	427.8536682128907	-197.7028198242188	977.1229248046877	393.4051513671876	-80.73150634765626	1035.862426757813	362.4946594238282	-125.1776351928711	820.934265136719	115.5900421142578	-136.059310913086	866.3028564453127	119.5330352783203	-218.0312194824219	771.546813964844	98.33413696289065	-194.0922088623047	942.0652465820315	21.35642814636231	-207.0272979736329	945.2290649414065	33.12578964233399	-142.584457397461	881.8892822265627	25.41169357299805	-100.304557800293	1126.183715820313	1337.954223632813	-201.9227600097657	1081.3046875	1099.575927734375	-206.3737945556641	1323.4228515625	1135.56396484375	-224.7474517822266	1265.907470703125	1292.61962890625	-219.0090789794922	1075.142944335938	1144.20654296875	-292.6297302246094	1085.253051757813	1276.802124023438	-288.4555358886719	1152.816528320313	1286.808227539063	-399.7924804687501	1192.413208007813	1297.659912109375	-394.052459716797	1088.7333984375	1052.53564453125	-496.0969543457032	1060.807006835938	1015.749633789063	-423.200897216797	1050.764282226563	1035.739013671875	-468.7536010742189	1048.627563476563	812.8054809570315	-541.1655883789064	995.745788574219	855.3936767578127	-585.5812377929689	1026.164306640625	734.9924316406251	-576.4133300781251	948.8413696289065	798.3337402343752	-604.3477783203126	1100.44140625	1144.600708007813	-80.57852935791017	1102.406372070313	1269.564575195313	-106.2663345336914	1194.564575195313	1284.228393554688	-16.33524322509766	1238.06591796875	1296.644287109375	-41.60367965698243	1353.0439453125	1027.0830078125	52.5604705810547	1323.442138671875	983.6059570312502	-11.21731472015381	1347.79296875	979.3084716796877	32.08824920654298	1545.455688476563	1016.299926757813	-83.86892700195314	1561.365112304688	976.4249267578127	-16.10682487487793	1630.859741210938	1027.095825195313	-106.6698608398438	1630.1962890625	945.262145996094	-46.30261230468751	
80	0.79	1327.128662109375	833.680603027344	-318.9378967285157	1145.936279296875	874.397888183594	-273.2260437011719	1134.138671875	881.309020996094	-189.3121948242188	1293.998901367188	838.578308105469	-83.66162872314455	1263.95751953125	746.1127319335939	-392.2677612304689	1431.10302734375	438.8379211425782	-359.7269592285157	1460.459716796875	445.5733032226564	-245.1804351806641	1441.568481445313	377.7353210449219	-360.7093200683594	1511.79931640625	391.6226501464845	-321.4262084960938	1588.712524414063	85.3302459716797	-323.6421813964844	1611.7451171875	113.9807205200196	-240.6927337646485	1580.7431640625	28.56503868103028	-272.2108459472657	1728.852294921875	137.0706176757813	-275.7894592285157	1718.000610351563	139.4340972900391	-333.5306396484376	1689.353637695313	95.39538574218751	-364.5853881835938	1169.163208007813	767.9977416992189	-41.45763397216798	1040.51220703125	448.3953247070314	-79.70759582519533	1061.126586914063	425.9588928222657	-196.8137512207032	994.9250488281252	394.727264404297	-80.11244201660158	1053.20703125	361.1849975585938	-123.1795501708985	828.0159301757815	123.0522613525391	-134.4887084960938	874.4363403320315	124.1118392944336	-215.7600402832032	779.5535888671877	108.9375839233399	-193.0603485107422	941.1133422851565	21.44010543823243	-207.2024536132813	944.0074462890627	32.41444778442384	-143.1054077148438	881.9396972656252	27.24817466735841	-100.6185531616211	1148.610961914063	1335.247680664063	-203.8783111572266	1105.16015625	1096.51220703125	-208.0171051025391	1346.98828125	1133.9189453125	-225.7181854248047	1288.69970703125	1290.5283203125	-220.3556823730469	1098.757690429688	1141.451171875	-294.0050659179688	1108.459838867188	1273.911987304688	-290.2614746093751	1175.892822265625	1284.674560546875	-401.2032165527345	1215.402954101563	1295.514282226563	-395.6987609863282	1109.785400390625	1051.164184570313	-496.5110168457032	1082.2275390625	1014.705200195313	-423.2763061523439	1072.189331054688	1035.071899414063	-468.7215881347657	1064.680908203125	812.6186523437502	-542.0838623046876	1012.109558105469	856.601745605469	-585.6092529296876	1040.301879882813	735.4735717773439	-577.5191040039064	963.5823974609377	800.7824707031252	-603.8452148437501	1123.041870117188	1141.837036132813	-82.39118957519533	1124.636596679688	1266.896850585938	-108.2480163574219	1216.538940429688	1282.017333984375	-17.980131149292	1260.154174804688	1294.464111328125	-43.17836380004884	1374.252075195313	1025.039306640625	52.13449096679689	1344.788330078125	981.296081542969	-11.57269859313965	1369.553588867188	976.9560546875002	31.57665824890137	1565.237426757813	1018.296325683594	-86.26850891113283	1582.73828125	978.5825195312502	-18.89050102233887	1649.650512695313	1031.598754882813	-109.9150314331055	1652.240966796875	949.333923339844	-50.05418395996095	
81	0.8	1353.192016601563	833.066345214844	-318.9879455566407	1171.423828125	872.7193603515627	-274.2636718750001	1159.759521484375	879.0800781250002	-190.3669738769532	1318.99658203125	836.5523681640627	-84.19105529785158	1291.29541015625	745.6460571289064	-393.0604248046876	1458.779663085938	438.775115966797	-359.2079162597657	1485.907470703125	445.1116027832032	-244.1858520507813	1468.226684570313	377.2404479980469	-360.2228088378907	1537.833740234375	390.0384216308595	-319.6663513183594	1607.686645507813	83.03899383544923	-322.3498840332032	1630.479858398438	110.5948715209961	-238.9718475341797	1597.38671875	27.09410476684571	-271.1599731445313	1747.972778320313	130.5636749267578	-272.9411926269532	1738.078125	132.8767395019532	-330.8144226074219	1708.421997070313	89.96777343750001	-362.0156555175782	1193.469360351563	766.1291503906251	-42.62186813354493	1061.919067382813	447.8372192382814	-78.88954925537111	1083.872192382813	423.3638000488282	-195.5484619140626	1014.580261230469	395.6126403808595	-79.12265014648439	1072.300903320313	359.3039855957032	-120.7301864624024	836.841491699219	131.2485046386719	-132.7919616699219	884.3052368164065	129.0279235839844	-213.223861694336	789.7425537109377	120.5173416137696	-192.0794219970704	940.3569335937502	22.12329292297364	-207.1773223876954	942.8179321289065	32.13516235351563	-143.4523620605469	882.469909667969	30.17292594909669	-100.8717727661133	1171.061157226563	1332.847045898438	-206.0814666748047	1129.28515625	1093.74072265625	-209.7915649414063	1370.801025390625	1132.857055664063	-226.7785034179688	1311.539306640625	1288.964965820313	-221.8147430419922	1122.6298828125	1139.093627929688	-295.7000122070313	1131.772705078125	1271.390869140625	-292.3497314453126	1199.25634765625	1282.907348632813	-402.7916564941407	1238.636352539063	1293.763916015625	-397.470672607422	1131.736450195313	1049.906494140625	-497.1405639648439	1104.3291015625	1013.875	-423.6094970703126	1094.442260742188	1034.404174804688	-469.000946044922	1082.744506835938	812.2827758789065	-542.6564941406251	1030.538818359375	857.2745361328127	-585.6938476562501	1056.876342773438	735.5932006835939	-577.9634399414064	980.7398071289065	802.3859863281252	-603.3889160156251	1145.765747070313	1139.339599609375	-84.42745971679689	1146.80908203125	1264.479858398438	-110.5280914306641	1238.246215820313	1280.17724609375	-19.82716178894043	1282.004516601563	1292.726928710938	-44.80529785156251	1394.626342773438	1023.101623535156	51.7560272216797	1365.148803710938	979.1943969726565	-11.92463111877442	1390.163208007813	974.751892089844	31.13846969604493	1584.272705078125	1019.318725585938	-88.1782684326172	1603.0185546875	979.6932373046877	-21.16532135009766	1667.734130859375	1034.670043945313	-112.5044250488282	1673.03662109375	952.0015258789065	-53.20747375488283	
82	0.8100000000000001	1379.443725585938	833.0291137695315	-319.3388366699219	1197.099487304688	871.5879516601565	-275.0552368164063	1185.751953125	877.2178955078127	-191.0155639648438	1344.652587890625	834.6806640625002	-85.04006195068361	1318.714233398438	745.8378295898439	-393.9630737304689	1486.404541015625	439.072723388672	-358.8060913085938	1511.25048828125	444.8895568847657	-243.4175262451172	1494.453002929688	376.9679260253907	-359.9133911132813	1563.362060546875	388.1611633300782	-317.9450378417969	1622.814208984375	80.01062011718751	-321.0530700683594	1645.541625976563	106.1114578247071	-237.1827545166016	1609.39306640625	25.22517967224122	-270.1606750488282	1763.404907226563	121.524154663086	-269.9191894531251	1754.607788085938	123.8723526000977	-327.9312133789063	1723.373168945313	82.63430023193361	-359.3956909179688	1218.687255859375	764.1251831054689	-43.70640182495118	1085.271606445313	446.5782165527345	-77.73488616943361	1108.598266601563	419.974822998047	-193.9018096923829	1036.2509765625	395.9295349121095	-77.75096893310548	1093.282470703125	356.7765808105469	-117.8608322143555	847.6787109375002	140.1620178222657	-131.0564727783203	896.1157226562502	134.2911071777344	-210.5327301025391	802.3386230468752	133.01123046875	-191.2175445556641	940.2041015625002	23.56582641601563	-206.8414916992188	942.057312011719	32.49890518188477	-143.500228881836	883.880065917969	34.42688751220704	-101.0109558105469	1193.548828125	1330.759521484375	-208.492172241211	1153.632934570313	1091.269409179688	-211.6942443847657	1394.832763671875	1132.312866210938	-227.8832702636719	1334.437377929688	1287.886840820313	-223.3458404541016	1146.757934570313	1137.0771484375	-297.7114868164063	1155.192260742188	1269.21630859375	-294.7001342773438	1222.925048828125	1281.454223632813	-404.5494079589845	1262.14404296875	1292.359252929688	-399.3419494628907	1154.6025390625	1048.679809570313	-497.987762451172	1127.095947265625	1013.186157226563	-424.2190856933595	1117.504028320313	1033.670288085938	-469.6127014160157	1102.817993164063	811.6856079101565	-542.9119262695314	1051.03271484375	857.2884521484377	-585.8931884765626	1075.885620117188	735.2188720703126	-577.7905883789064	1000.320678710938	802.9952392578127	-603.0758666992189	1168.58544921875	1137.092163085938	-86.69071197509767	1168.938110351563	1262.318115234375	-113.071044921875	1259.69482421875	1278.679443359375	-21.82513046264649	1303.631225585938	1291.404296875	-46.43488311767579	1414.180297851563	1021.240356445313	51.43014907836915	1384.533447265625	977.2710571289065	-12.26251602172852	1409.638061523438	972.6684570312502	30.77672386169434	1602.658325195313	1019.324462890625	-89.61557006835939	1622.30078125	979.693054199219	-22.93391418457032	1685.268676757813	1036.2138671875	-114.4798889160157	1692.677124023438	953.1510009765627	-55.76816177368165	
